<mxfile host="app.diagrams.net" agent="Mozilla/5.0 (Windows NT 10.0; Win64; x64) AppleWebKit/537.36 (KHTML, like Gecko) Chrome/140.0.0.0 Safari/537.36" version="28.2.4">
  <diagram name="Página-1" id="Kir5lUTQsP73AKyXWG9N">
    <mxGraphModel dx="1924" dy="555" grid="1" gridSize="10" guides="1" tooltips="1" connect="1" arrows="1" fold="1" page="1" pageScale="1" pageWidth="827" pageHeight="1169" math="0" shadow="0">
      <root>
        <mxCell id="0" />
        <mxCell id="1" parent="0" />
        <mxCell id="pFB9ruW7gvEPElzmVASX-1" value="Administrador" style="shape=umlActor;verticalLabelPosition=bottom;verticalAlign=top;html=1;fontFamily=Verdana;fontStyle=3;textShadow=1;" parent="1" vertex="1">
          <mxGeometry x="-260" y="235" width="40" height="80" as="geometry" />
        </mxCell>
        <mxCell id="pFB9ruW7gvEPElzmVASX-6" value="Jogador" style="shape=umlActor;verticalLabelPosition=bottom;verticalAlign=top;html=1;fontFamily=Verdana;fontStyle=3;textShadow=1;" parent="1" vertex="1">
          <mxGeometry x="530" y="235" width="40" height="80" as="geometry" />
        </mxCell>
        <mxCell id="pFB9ruW7gvEPElzmVASX-8" value="" style="whiteSpace=wrap;html=1;fillColor=#e1d5e7;strokeColor=#9673a6;" parent="1" vertex="1">
          <mxGeometry x="-147" y="80" width="667" height="500" as="geometry" />
        </mxCell>
        <mxCell id="pFB9ruW7gvEPElzmVASX-10" value="Sistema de Quiz Interativo" style="text;align=center;fontStyle=1;verticalAlign=middle;spacingLeft=3;spacingRight=3;strokeColor=none;rotatable=0;points=[[0,0.5],[1,0.5]];portConstraint=eastwest;html=1;fontSize=18;textShadow=1;" parent="1" vertex="1">
          <mxGeometry x="154" y="84" width="80" height="26" as="geometry" />
        </mxCell>
        <mxCell id="pFB9ruW7gvEPElzmVASX-12" value="&lt;div&gt;&lt;span style=&quot;background-color: transparent; color: light-dark(rgb(0, 0, 0), rgb(255, 255, 255));&quot;&gt;&lt;b&gt;&lt;i&gt;UC01&amp;nbsp;&lt;/i&gt;&lt;/b&gt;&lt;/span&gt;&lt;/div&gt;&lt;div&gt;Login/cadastro de Administrador&lt;/div&gt;" style="ellipse;whiteSpace=wrap;html=1;align=center;fontFamily=Verdana;fontSize=11;" parent="1" vertex="1">
          <mxGeometry x="-60" y="475" width="130" height="70" as="geometry" />
        </mxCell>
        <mxCell id="pFB9ruW7gvEPElzmVASX-17" value="&lt;b&gt;&lt;i&gt;UC02&lt;/i&gt;&amp;nbsp;&lt;/b&gt;&lt;div&gt;Manter&lt;span style=&quot;background-color: transparent; color: light-dark(rgb(0, 0, 0), rgb(255, 255, 255));&quot;&gt;&amp;nbsp;Banco de Questões&lt;/span&gt;&lt;/div&gt;" style="ellipse;whiteSpace=wrap;html=1;fontFamily=Verdana;fontSize=11;" parent="1" vertex="1">
          <mxGeometry x="20" y="315" width="130" height="70" as="geometry" />
        </mxCell>
        <mxCell id="pFB9ruW7gvEPElzmVASX-20" value="&lt;b&gt;&lt;i&gt;UC03&amp;nbsp;&lt;/i&gt;&lt;/b&gt;&lt;div&gt;Criar Quiz Dinâmico&lt;/div&gt;" style="ellipse;whiteSpace=wrap;html=1;fontFamily=Verdana;fontSize=11;" parent="1" vertex="1">
          <mxGeometry x="133" y="235" width="126" height="65" as="geometry" />
        </mxCell>
        <mxCell id="pFB9ruW7gvEPElzmVASX-21" value="&lt;b&gt;&lt;i&gt;UC04&amp;nbsp;&lt;/i&gt;&lt;/b&gt;&lt;div&gt;Gerar Sala via QR Code/Link&lt;/div&gt;" style="ellipse;whiteSpace=wrap;html=1;fontFamily=Verdana;fontSize=11;" parent="1" vertex="1">
          <mxGeometry x="-80" y="150" width="140" height="75" as="geometry" />
        </mxCell>
        <mxCell id="pFB9ruW7gvEPElzmVASX-22" value="&lt;b&gt;&lt;span&gt;UC05&amp;nbsp;&lt;/span&gt;&lt;/b&gt;&lt;div&gt;Entrar na Sala via QR Code/Link&lt;/div&gt;" style="ellipse;whiteSpace=wrap;html=1;fontFamily=Verdana;fontSize=11;textShadow=0;spacingBottom=0;verticalAlign=middle;horizontal=1;fontStyle=0" parent="1" vertex="1">
          <mxGeometry x="310" y="175" width="140" height="70" as="geometry" />
        </mxCell>
        <mxCell id="pFB9ruW7gvEPElzmVASX-23" value="&lt;b&gt;&lt;i&gt;UC06&lt;/i&gt;&lt;/b&gt;&lt;div&gt;&amp;nbsp;Executar Quiz&lt;/div&gt;" style="ellipse;whiteSpace=wrap;html=1;fontFamily=Verdana;fontSize=12;" parent="1" vertex="1">
          <mxGeometry x="130" y="415" width="134.5" height="60" as="geometry" />
        </mxCell>
        <mxCell id="pFB9ruW7gvEPElzmVASX-24" value="&lt;b&gt;&lt;i&gt;UC07&amp;nbsp;&lt;/i&gt;&lt;/b&gt;&lt;div&gt;Visualizar Dashboard de Resultados&lt;/div&gt;" style="ellipse;whiteSpace=wrap;html=1;fontFamily=Verdana;fontSize=11;" parent="1" vertex="1">
          <mxGeometry x="134" y="495" width="136" height="70" as="geometry" />
        </mxCell>
        <mxCell id="pFB9ruW7gvEPElzmVASX-28" value="" style="endArrow=none;html=1;rounded=0;entryX=0.013;entryY=0.329;entryDx=0;entryDy=0;entryPerimeter=0;" parent="1" source="pFB9ruW7gvEPElzmVASX-1" target="pFB9ruW7gvEPElzmVASX-17" edge="1">
          <mxGeometry width="50" height="50" relative="1" as="geometry">
            <mxPoint x="-100" y="320" as="sourcePoint" />
            <mxPoint x="-50" y="270" as="targetPoint" />
          </mxGeometry>
        </mxCell>
        <mxCell id="pFB9ruW7gvEPElzmVASX-29" value="" style="endArrow=none;html=1;rounded=0;" parent="1" source="pFB9ruW7gvEPElzmVASX-20" target="pFB9ruW7gvEPElzmVASX-1" edge="1">
          <mxGeometry width="50" height="50" relative="1" as="geometry">
            <mxPoint x="-60" y="375" as="sourcePoint" />
            <mxPoint x="-100" y="275" as="targetPoint" />
            <Array as="points" />
          </mxGeometry>
        </mxCell>
        <mxCell id="pFB9ruW7gvEPElzmVASX-32" value="" style="endArrow=none;html=1;rounded=0;" parent="1" source="pFB9ruW7gvEPElzmVASX-1" target="pFB9ruW7gvEPElzmVASX-21" edge="1">
          <mxGeometry width="50" height="50" relative="1" as="geometry">
            <mxPoint x="78" y="255" as="sourcePoint" />
            <mxPoint x="128" y="205" as="targetPoint" />
          </mxGeometry>
        </mxCell>
        <mxCell id="pFB9ruW7gvEPElzmVASX-33" value="" style="endArrow=none;html=1;rounded=0;entryX=0;entryY=0.5;entryDx=0;entryDy=0;" parent="1" source="pFB9ruW7gvEPElzmVASX-1" target="pFB9ruW7gvEPElzmVASX-23" edge="1">
          <mxGeometry width="50" height="50" relative="1" as="geometry">
            <mxPoint x="85" y="320" as="sourcePoint" />
            <mxPoint x="135" y="270" as="targetPoint" />
            <Array as="points" />
          </mxGeometry>
        </mxCell>
        <mxCell id="pFB9ruW7gvEPElzmVASX-35" value="" style="endArrow=none;html=1;rounded=0;entryX=0.097;entryY=0.25;entryDx=0;entryDy=0;entryPerimeter=0;" parent="1" source="pFB9ruW7gvEPElzmVASX-1" target="pFB9ruW7gvEPElzmVASX-24" edge="1">
          <mxGeometry width="50" height="50" relative="1" as="geometry">
            <mxPoint x="100" y="405" as="sourcePoint" />
            <mxPoint x="150" y="355" as="targetPoint" />
          </mxGeometry>
        </mxCell>
        <mxCell id="pFB9ruW7gvEPElzmVASX-36" value="" style="endArrow=none;html=1;rounded=0;exitX=0.947;exitY=0.728;exitDx=0;exitDy=0;exitPerimeter=0;" parent="1" source="pFB9ruW7gvEPElzmVASX-22" edge="1">
          <mxGeometry width="50" height="50" relative="1" as="geometry">
            <mxPoint x="410" y="295" as="sourcePoint" />
            <mxPoint x="530" y="275" as="targetPoint" />
          </mxGeometry>
        </mxCell>
        <mxCell id="pFB9ruW7gvEPElzmVASX-37" value="" style="endArrow=none;html=1;rounded=0;exitX=1;exitY=0.5;exitDx=0;exitDy=0;" parent="1" source="pFB9ruW7gvEPElzmVASX-23" edge="1">
          <mxGeometry width="50" height="50" relative="1" as="geometry">
            <mxPoint x="460" y="300" as="sourcePoint" />
            <mxPoint x="530" y="285" as="targetPoint" />
          </mxGeometry>
        </mxCell>
        <mxCell id="pFB9ruW7gvEPElzmVASX-38" value="" style="endArrow=none;html=1;rounded=0;exitX=0.925;exitY=0.246;exitDx=0;exitDy=0;exitPerimeter=0;" parent="1" source="pFB9ruW7gvEPElzmVASX-24" target="pFB9ruW7gvEPElzmVASX-6" edge="1">
          <mxGeometry width="50" height="50" relative="1" as="geometry">
            <mxPoint x="460" y="310" as="sourcePoint" />
            <mxPoint x="510" y="260" as="targetPoint" />
          </mxGeometry>
        </mxCell>
        <mxCell id="pFB9ruW7gvEPElzmVASX-45" value="" style="endArrow=none;html=1;rounded=0;exitX=0;exitY=0;exitDx=0;exitDy=0;" parent="1" source="pFB9ruW7gvEPElzmVASX-12" target="pFB9ruW7gvEPElzmVASX-1" edge="1">
          <mxGeometry width="50" height="50" relative="1" as="geometry">
            <mxPoint x="-50" y="460" as="sourcePoint" />
            <mxPoint y="410" as="targetPoint" />
          </mxGeometry>
        </mxCell>
        <mxCell id="pFB9ruW7gvEPElzmVASX-49" value="&amp;lt;&amp;lt;include&amp;gt;&amp;gt;" style="html=1;verticalAlign=bottom;labelBackgroundColor=none;endArrow=open;endFill=0;dashed=1;rounded=0;exitX=0.082;exitY=0.264;exitDx=0;exitDy=0;exitPerimeter=0;entryX=0.745;entryY=0.895;entryDx=0;entryDy=0;entryPerimeter=0;" parent="1" source="pFB9ruW7gvEPElzmVASX-20" edge="1">
          <mxGeometry width="160" relative="1" as="geometry">
            <mxPoint x="149.99999999999994" y="251.31500000000005" as="sourcePoint" />
            <mxPoint x="32.47999999999996" y="217.125" as="targetPoint" />
          </mxGeometry>
        </mxCell>
        <mxCell id="pFB9ruW7gvEPElzmVASX-51" value="&amp;lt;&amp;lt;extend&amp;gt;&amp;gt;" style="html=1;verticalAlign=bottom;labelBackgroundColor=none;endArrow=open;endFill=0;dashed=1;rounded=0;exitX=0.5;exitY=1;exitDx=0;exitDy=0;entryX=0.895;entryY=0.249;entryDx=0;entryDy=0;entryPerimeter=0;" parent="1" source="pFB9ruW7gvEPElzmVASX-22" target="pFB9ruW7gvEPElzmVASX-23" edge="1">
          <mxGeometry width="160" relative="1" as="geometry">
            <mxPoint x="310" y="265" as="sourcePoint" />
            <mxPoint x="470" y="265" as="targetPoint" />
          </mxGeometry>
        </mxCell>
        <mxCell id="-L5sW4ZiLcS3vJe-_Noj-2" value="&amp;lt;&amp;lt;extend&amp;gt;&amp;gt;" style="html=1;verticalAlign=bottom;labelBackgroundColor=none;endArrow=open;endFill=0;dashed=1;rounded=0;exitX=0.5;exitY=1;exitDx=0;exitDy=0;" parent="1" source="pFB9ruW7gvEPElzmVASX-20" target="pFB9ruW7gvEPElzmVASX-23" edge="1">
          <mxGeometry width="160" relative="1" as="geometry">
            <mxPoint x="144" y="292" as="sourcePoint" />
            <mxPoint x="304" y="292" as="targetPoint" />
          </mxGeometry>
        </mxCell>
      </root>
    </mxGraphModel>
  </diagram>
</mxfile>
